<svg xmlns="http://www.w3.org/2000/svg" width="16.083" height="12.637" viewBox="0 0 16.083 12.637">
  <g id="Group_530" data-name="Group 530" transform="translate(0 0)">
    <path id="Path_19" data-name="Path 19" d="M1.544,58.715q.305.215,1.84,1.279t2.351,1.638q.09.063.381.274t.485.341q.193.13.467.292a2.708,2.708,0,0,0,.516.242,1.422,1.422,0,0,0,.449.081h.018A1.423,1.423,0,0,0,8.5,62.78a2.711,2.711,0,0,0,.516-.242q.274-.162.467-.292t.485-.341q.292-.211.381-.274l4.2-2.917a4.263,4.263,0,0,0,1.095-1.1,2.37,2.37,0,0,0,.44-1.355,1.448,1.448,0,0,0-1.436-1.436H1.436a1.282,1.282,0,0,0-1.064.467A1.812,1.812,0,0,0,0,56.453a2.1,2.1,0,0,0,.494,1.225A4.455,4.455,0,0,0,1.544,58.715Z" transform="translate(0 -54.82)" fill="#fff"/>
    <path id="Path_20" data-name="Path 20" d="M15.186,185.218q-2.943,1.992-4.469,3.1-.512.377-.83.588a5.125,5.125,0,0,1-.848.431,2.582,2.582,0,0,1-.987.22H8.033a2.583,2.583,0,0,1-.987-.22A5.128,5.128,0,0,1,6.2,188.9q-.319-.211-.83-.588-1.212-.888-4.461-3.1A4.754,4.754,0,0,1,0,184.437v7.126a1.382,1.382,0,0,0,.422,1.014A1.383,1.383,0,0,0,1.436,193H14.647a1.44,1.44,0,0,0,1.436-1.436v-7.126A4.948,4.948,0,0,1,15.186,185.218Z" transform="translate(0 -180.362)" fill="#fff"/>
  </g>
</svg>
