<svg id="Group_529" data-name="Group 529" xmlns="http://www.w3.org/2000/svg" width="16.083" height="19.301" viewBox="0 0 16.083 19.301">
  <g id="Group_497" data-name="Group 497">
    <g id="Group_496" data-name="Group 496">
      <path id="Path_17" data-name="Path 17" d="M58.7,16.279l-1.381-2.3a6.837,6.837,0,0,1-.975-3.518V8.444a5.636,5.636,0,0,0-4.021-5.392V1.608a1.608,1.608,0,0,0-3.217,0V3.052a5.637,5.637,0,0,0-4.021,5.392V10.46a6.841,6.841,0,0,1-.974,3.517l-1.381,2.3a.4.4,0,0,0,.344.61h15.28a.4.4,0,0,0,.345-.609Z" transform="translate(-42.675 0)" fill="#0affef"/>
    </g>
  </g>
  <g id="Group_499" data-name="Group 499" transform="translate(5.509 17.692)">
    <g id="Group_498" data-name="Group 498">
      <path id="Path_18" data-name="Path 18" d="M188.815,469.333a2.8,2.8,0,0,0,5.065,0Z" transform="translate(-188.815 -469.333)" fill="#0affef"/>
    </g>
  </g>
</svg>
